<svg xmlns="http://www.w3.org/2000/svg" viewBox="0 0 16 16" width="32" height="32">
  <rect width="16" height="16" rx="3" fill="#24292f"/>
  <path fill="#ffffff" d="M8 1.5c3.59 0 6.5 2.91 6.5 6.5a6.51 6.51 0 0 1-4.43 6.16c-.32.06-.44-.14-.44-.31 0-.22.01-.92.01-1.79 0-.61-.2-1-.43-1.2 1.44-.16 2.96-.71 2.96-3.21 0-.71-.25-1.29-.67-1.75.07-.16.29-.83-.06-1.72 0 0-.54-.18-1.78.67-.52-.15-1.07-.22-1.63-.22-.55 0-1.1.07-1.62.22C5.17 4.38 4.63 4.56 4.63 4.56c-.36.89-.14 1.56-.07 1.72-.41.46-.66 1.04-.66 1.75 0 2.49 1.51 3.05 2.95 3.22-.19.16-.36.45-.41.87-.37.17-1.31.45-1.89-.54-.12-.19-.49-.67-1-.67-.54.01-.22.31.01.43.28.15.59.73.67.92.13.36.55 1.06 2.18.76 0 .55.01 1.06.01 1.21 0 .17-.12.37-.45.31A6.508 6.508 0 0 1 1.5 8C1.5 4.41 4.41 1.5 8 1.5Z"/>
</svg>
